<svg width="228" height="38" viewBox="0 0 228 38" fill="none" xmlns="http://www.w3.org/2000/svg">
<path d="M0.349077 30.7358V24.8022L15.2266 1.36364H20.3423V9.5767H17.3146L7.93572 24.4194V24.6978H29.0774V30.7358H0.349077ZM17.4538 37V28.9261L17.593 26.2987V1.36364H24.6577V37H17.4538ZM48.0701 37.783C45.0772 37.7714 42.502 37.0348 40.3443 35.5732C38.1982 34.1115 36.5452 31.9944 35.3851 29.2219C34.2367 26.4495 33.6683 23.1143 33.6799 19.2166C33.6799 15.3305 34.2541 12.0186 35.4025 9.28089C36.5626 6.5432 38.2156 4.46094 40.3617 3.03409C42.5194 1.59564 45.0888 0.876419 48.0701 0.876419C51.0514 0.876419 53.6151 1.59564 55.7612 3.03409C57.9189 4.47254 59.5777 6.5606 60.7378 9.29829C61.8978 12.0244 62.472 15.3305 62.4604 19.2166C62.4604 23.1259 61.8804 26.4669 60.7203 29.2393C59.5719 32.0118 57.9247 34.1289 55.7786 35.5906C53.6325 37.0522 51.063 37.783 48.0701 37.783ZM48.0701 31.5362C50.1118 31.5362 51.7417 30.5096 52.9597 28.4563C54.1777 26.4031 54.781 23.3232 54.7694 19.2166C54.7694 16.5137 54.4909 14.2633 53.9341 12.4652C53.3889 10.6671 52.6117 9.31569 51.6025 8.41086C50.6048 7.50604 49.4274 7.05362 48.0701 7.05362C46.0401 7.05362 44.416 8.06866 43.198 10.0987C41.9799 12.1288 41.3651 15.1681 41.3535 19.2166C41.3535 21.9543 41.6261 24.2396 42.1713 26.0724C42.7282 27.8937 43.5112 29.2625 44.5204 30.179C45.5297 31.0838 46.7129 31.5362 48.0701 31.5362ZM67.2934 30.7358V24.8022L82.1709 1.36364H87.2867V9.5767H84.259L74.8801 24.4194V24.6978H96.0218V30.7358H67.2934ZM84.3982 37V28.9261L84.5374 26.2987V1.36364H91.602V37H84.3982ZM112.591 37V1.36364H136.604V7.57564H120.126V16.0671H135.369V22.2791H120.126V30.788H136.674V37H112.591ZM142.455 37V10.2727H149.642V14.9361H149.92C150.407 13.2772 151.225 12.0244 152.373 11.1776C153.522 10.3191 154.844 9.88991 156.341 9.88991C156.712 9.88991 157.112 9.91311 157.541 9.95952C157.971 10.0059 158.348 10.0697 158.672 10.1509V16.7283C158.324 16.6239 157.843 16.5311 157.228 16.4499C156.613 16.3687 156.051 16.3281 155.54 16.3281C154.45 16.3281 153.476 16.5659 152.617 17.0415C151.77 17.5056 151.097 18.1552 150.599 18.9904C150.111 19.8256 149.868 20.7885 149.868 21.8789V37H142.455ZM162.505 37V10.2727H169.691V14.9361H169.97C170.457 13.2772 171.275 12.0244 172.423 11.1776C173.572 10.3191 174.894 9.88991 176.391 9.88991C176.762 9.88991 177.162 9.91311 177.591 9.95952C178.02 10.0059 178.397 10.0697 178.722 10.1509V16.7283C178.374 16.6239 177.893 16.5311 177.278 16.4499C176.663 16.3687 176.101 16.3281 175.59 16.3281C174.5 16.3281 173.525 16.5659 172.667 17.0415C171.82 17.5056 171.147 18.1552 170.648 18.9904C170.161 19.8256 169.918 20.7885 169.918 21.8789V37H162.505ZM193.387 37.522C190.684 37.522 188.346 36.9478 186.374 35.7994C184.414 34.6393 182.9 33.0269 181.833 30.962C180.765 28.8855 180.232 26.4785 180.232 23.7408C180.232 20.9799 180.765 18.567 181.833 16.5021C182.9 14.4257 184.414 12.8132 186.374 11.6648C188.346 10.5047 190.684 9.92472 193.387 9.92472C196.09 9.92472 198.421 10.5047 200.382 11.6648C202.354 12.8132 203.873 14.4257 204.941 16.5021C206.008 18.567 206.541 20.9799 206.541 23.7408C206.541 26.4785 206.008 28.8855 204.941 30.962C203.873 33.0269 202.354 34.6393 200.382 35.7994C198.421 36.9478 196.09 37.522 193.387 37.522ZM193.421 31.7798C194.651 31.7798 195.678 31.4318 196.501 30.7358C197.325 30.0282 197.946 29.0653 198.363 27.8473C198.792 26.6293 199.007 25.243 199.007 23.6886C199.007 22.1341 198.792 20.7479 198.363 19.5298C197.946 18.3118 197.325 17.349 196.501 16.6413C195.678 15.9337 194.651 15.5799 193.421 15.5799C192.18 15.5799 191.136 15.9337 190.289 16.6413C189.454 17.349 188.822 18.3118 188.393 19.5298C187.975 20.7479 187.766 22.1341 187.766 23.6886C187.766 25.243 187.975 26.6293 188.393 27.8473C188.822 29.0653 189.454 30.0282 190.289 30.7358C191.136 31.4318 192.18 31.7798 193.421 31.7798ZM211.361 37V10.2727H218.548V14.9361H218.826C219.313 13.2772 220.131 12.0244 221.28 11.1776C222.428 10.3191 223.751 9.88991 225.247 9.88991C225.618 9.88991 226.018 9.91311 226.448 9.95952C226.877 10.0059 227.254 10.0697 227.579 10.1509V16.7283C227.231 16.6239 226.749 16.5311 226.135 16.4499C225.52 16.3687 224.957 16.3281 224.447 16.3281C223.356 16.3281 222.382 16.5659 221.523 17.0415C220.677 17.5056 220.004 18.1552 219.505 18.9904C219.018 19.8256 218.774 20.7885 218.774 21.8789V37H211.361Z" fill="black"/>
</svg>
